
<svg aria-hidden="true" style="position:absolute;width:0;height:0;overflow:hidden" xmlns="http://www.w3.org/2000/svg">
  <defs>
    <symbol id="icon-basket" viewBox="0 0 32 32">
      <path d="M31.819 8.647a1.007 1.007 0 0 0-.817-.436H9.672L8.057 2.494C7.424.243 5.919 0 5.302 0H.997C.445 0-.001.459-.001 1.025S.446 2.05.997 2.05h4.305c.136 0 .552 0 .835 1.006l5.554 20.96c.121.442.513.748.961.748h13.567a.999.999 0 0 0 .939-.678L31.94 9.584a1.05 1.05 0 0 0-.122-.936zm-6.302 14.067H13.41l-3.177-12.452h19.35l-4.066 12.452zm-1.979 4.126c-1.388 0-2.513 1.155-2.513 2.58S22.15 32 23.538 32s2.513-1.155 2.513-2.58-1.125-2.58-2.513-2.58zm-9.045 0c-1.388 0-2.513 1.155-2.513 2.58S13.105 32 14.493 32s2.513-1.155 2.513-2.58-1.125-2.58-2.513-2.58z"/>
    </symbol>
    <symbol id="icon-telegram" viewBox="0 0 32 32">
      <path stroke-linejoin="round" stroke-linecap="round" stroke-width="1.846" d="M29.439 1.231c.91 0 1.597.952 1.23 2.722l-4.455 25.03c-.311 1.78-1.214 2.208-2.459 1.38l-10.628-9.356c-.041-.035-.075-.082-.098-.135a.44.44 0 0 1 .098-.484l12.272-13.21c.559-.59-.12-.876-.854-.343L9.143 18.418c-.047.036-.1.059-.155.068s-.112.001-.164-.02l-6.539-2.465c-1.453-.505-1.453-1.694.327-2.541L28.778 1.43c.208-.118.433-.186.663-.2z"/>
    </symbol>
    <symbol id="icon-instogram" viewBox="0 0 32 32">
      <path d="M16 0c4.355 0 4.891.032 6.596.095 1.673.063 2.84.347 3.882.757 1.073.41 1.957.947 2.84 1.83s1.42 1.767 1.83 2.84c.41 1.041.694 2.209.757 3.882.063 1.704.095 2.241.095 6.596s-.032 4.891-.095 6.596c-.063 1.673-.347 2.84-.757 3.882-.41 1.073-.947 1.957-1.83 2.84s-1.767 1.42-2.84 1.83c-1.041.41-2.209.694-3.882.757-1.704.063-2.241.095-6.596.095s-4.892-.032-6.596-.095c-1.673-.063-2.84-.347-3.882-.757-1.073-.41-1.957-.947-2.84-1.83s-1.42-1.767-1.83-2.84c-.41-1.041-.694-2.209-.757-3.882C.032 20.892 0 20.355 0 16s.032-4.892.095-6.596c.063-1.673.347-2.84.757-3.882.41-1.073.947-1.957 1.83-2.84s1.767-1.42 2.84-1.83C6.563.442 7.731.158 9.404.095 11.108.032 11.645 0 16 0zm0 2.083c-4.544 0-5.081.032-6.848.095-1.641.063-2.556.379-3.156.6-1.546.631-2.588 1.673-3.219 3.219-.221.6-.537 1.515-.6 3.156-.063 1.767-.095 2.304-.095 6.848s.032 5.081.095 6.848c.063 1.641.379 2.556.6 3.156.631 1.546 1.673 2.588 3.219 3.219.6.221 1.515.536 3.156.6 1.767.063 2.304.095 6.848.095s5.081-.032 6.848-.095c1.641-.063 2.556-.379 3.156-.6 1.546-.631 2.588-1.673 3.219-3.219.221-.6.536-1.515.6-3.156.063-1.767.095-2.304.095-6.848s-.032-5.081-.095-6.848c-.063-1.641-.379-2.556-.6-3.156-.631-1.546-1.673-2.588-3.219-3.219-.6-.221-1.515-.537-3.156-.6-1.767-.063-2.304-.095-6.848-.095zm0 20.323c3.535 0 6.406-2.872 6.406-6.406S19.534 9.594 16 9.594c-3.535 0-6.406 2.872-6.406 6.406s2.872 6.406 6.406 6.406zm0-14.611c4.544 0 8.205 3.661 8.205 8.205S20.544 24.205 16 24.205c-4.544 0-8.205-3.661-8.205-8.205S11.456 7.795 16 7.795zm10.477-.316c0 1.073-.884 1.893-1.957 1.893s-1.893-.821-1.893-1.893.821-1.957 1.893-1.957c1.073 0 1.957.884 1.957 1.957z"/>
    </symbol>
    <symbol id="phone-handset" viewBox="0 0 32 32">
      <path d="M7.916.748c1.203 1.664 2.637 3.813 4.296 6.439.418.71.354 1.561-.187 2.561-.206.419-.727 1.374-1.556 2.877.913 1.29 2.302 2.877 4.174 4.748s3.428 3.271 4.669 4.187c1.492-.877 2.45-1.413 2.868-1.626.54-.29 1.061-.439 1.556-.439.373 0 .707.084.997.252 1.91 1.168 4.071 2.607 6.476 4.31.457.335.714.794.778 1.374.064.587-.116 1.206-.527 1.877-.206.29-.54.716-.997 1.284-.457.561-1.145 1.271-2.058 2.123s-1.659 1.284-2.244 1.284h-.064c-4.392-.174-9.807-3.477-16.219-9.91C3.46 15.65.167 10.225 0 5.812c0-.581.424-1.342 1.28-2.284.849-.935 1.55-1.613 2.084-2.032.54-.413.997-.748 1.37-1A2.565 2.565 0 0 1 6.29-.001c.714 0 1.248.252 1.627.748zm-2.057 1.31a19.976 19.976 0 0 0-2.463 2.097c-.765.774-1.215 1.342-1.338 1.716.167 3.877 3.248 8.813 9.248 14.813s10.932 9.103 14.791 9.31c.334-.123.881-.581 1.653-1.374s1.466-1.626 2.084-2.497c.122-.168.167-.31.122-.439-2.489-1.748-4.566-3.142-6.231-4.187-.167 0-.373.065-.624.187-.373.206-1.305.729-2.804 1.561l-1.061.626-1.061-.69c-1.37-.955-3.029-2.439-4.984-4.439-1.949-1.955-3.402-3.626-4.36-5l-.746-1 .624-1.123c.83-1.497 1.351-2.439 1.556-2.813.122-.252.187-.458.187-.626a152.653 152.653 0 0 0-4.096-6.245h-.064a.797.797 0 0 0-.431.123z"/>
    </symbol>
    <symbol id="icon-leaf" viewBox="0 0 22 32">
      <path d="M9.921 0a4.275 4.275 0 0 0-.976.391C3.493 3.388 0 11.769 0 18.949 0 25.773 4.356 31.381 9.921 32V0zm2.053 32c5.565-.62 9.921-6.226 9.921-13.05 0-.653-.029-1.317-.086-1.986l-9.835 11.569V32zm7.54-23.796a22.192 22.192 0 0 0-1.834-3.283l-5.706 6.712v5.44l7.54-8.868zm-3.219-5.07A12.717 12.717 0 0 0 12.949.391 4.238 4.238 0 0 0 11.973 0v8.218l4.321-5.084zm4.144 7.394-8.465 9.958v4.632l9.417-11.077a27.367 27.367 0 0 0-.952-3.514z"/>
    </symbol>
  </defs>
</svg>