<svg width="34" height="43" viewBox="0 0 34 43" fill="none" xmlns="http://www.w3.org/2000/svg">
<path d="M15.4062 0.799988C14.8839 0.914119 14.3759 1.08379 13.8911 1.30598C5.42512 5.1832 0 16.0257 0 25.3147C0 34.1436 6.76388 41.3983 15.4062 42.2V0.799988ZM18.5938 42.2C27.2361 41.3983 34 34.1457 34 25.3168C34 24.4714 33.9554 23.6135 33.8661 22.7473L18.5938 37.7147V42.2ZM30.3025 11.4134C29.4869 9.91567 28.5338 8.49384 27.455 7.16553L18.5938 15.8487V22.8868L30.3025 11.4134ZM25.3045 4.8542C23.7821 3.40118 22.027 2.20255 20.1089 1.30598C19.6241 1.08379 19.1161 0.914119 18.5938 0.799988V11.4321L25.3045 4.8542ZM31.739 14.4202L18.5938 27.3033V33.2961L32.9375 19.2407L33.218 18.9658C32.8438 17.4159 32.3494 15.8963 31.739 14.4202Z" fill="black"/>
</svg>
